<svg xmlns="http://www.w3.org/2000/svg" viewBox="0 0 720 980" font-family="system-ui, sans-serif">

  <rect x="0" y="0" width="720" height="980" rx="18" fill="#0b1120"/>

  <rect x="40" y="60" width="640" height="330" rx="14" fill="#0e1730" stroke="#1e2b48" stroke-width="1.5"/>

  <line x1="200" y1="72" x2="200" y2="378" stroke="#1e2b48" stroke-width="1.5"/>
  <line x1="360" y1="72" x2="360" y2="378" stroke="#1e2b48" stroke-width="1.5"/>
  <line x1="520" y1="72" x2="520" y2="378" stroke="#1e2b48" stroke-width="1.5"/>

  <g transform="translate(120,225) scale(28)"><polygon points="0,-1 0.2245,-0.309 0.9511,-0.309 0.3633,0.118 0.5878,0.809 0,0.382 -0.5878,0.809 -0.3633,0.118 -0.9511,-0.309 -0.2245,-0.309" fill="none" stroke="#6ea8fe" stroke-width="2.5" vector-effect="non-scaling-stroke" stroke-linejoin="round"/></g>

  <g transform="translate(280,225) scale(42)"><polygon points="0,-1 0.2245,-0.309 0.9511,-0.309 0.3633,0.118 0.5878,0.809 0,0.382 -0.5878,0.809 -0.3633,0.118 -0.9511,-0.309 -0.2245,-0.309" fill="none" stroke="#6ea8fe" stroke-width="2.5" vector-effect="non-scaling-stroke" stroke-linejoin="round"/></g>

  <g transform="translate(440,225) scale(56)"><polygon points="0,-1 0.2245,-0.309 0.9511,-0.309 0.3633,0.118 0.5878,0.809 0,0.382 -0.5878,0.809 -0.3633,0.118 -0.9511,-0.309 -0.2245,-0.309" fill="none" stroke="#6ea8fe" stroke-width="2.5" vector-effect="non-scaling-stroke" stroke-linejoin="round"/></g>

  <rect x="548" y="180" width="104" height="90" rx="8" fill="none" stroke="#33436b" stroke-width="2" stroke-dasharray="7 7"/>
  <text x="600" y="245" text-anchor="middle" font-size="56" font-weight="700" fill="#6ea8fe">?</text>

  <text x="360" y="450" text-anchor="middle" font-size="20" fill="#9db4d8">รูปไหนควรอยู่ตรงเครื่องหมาย ?</text>

  <g>

    <g transform="translate(0,0)">
    <rect x="70" y="520" width="130" height="150" rx="12" fill="#0e1730" stroke="#1e2b48" stroke-width="1.5"/>
    <g transform="translate(135,587) scale(40)"><polygon points="0,-1 0.2245,-0.309 0.9511,-0.309 0.3633,0.118 0.5878,0.809 0,0.382 -0.5878,0.809 -0.3633,0.118 -0.9511,-0.309 -0.2245,-0.309" fill="none" stroke="#6ea8fe" stroke-width="2.5" vector-effect="non-scaling-stroke" stroke-linejoin="round"/></g>
    <text x="135" y="655" text-anchor="middle" font-size="22" font-weight="700" fill="#9db4d8">A</text>
    </g>

    <g transform="translate(70,0)">
    <rect x="225" y="520" width="130" height="150" rx="12" fill="#0e1730" stroke="#1e2b48" stroke-width="1.5"/>
    <g transform="translate(290,587) scale(22)"><polygon points="0,-1 0.2245,-0.309 0.9511,-0.309 0.3633,0.118 0.5878,0.809 0,0.382 -0.5878,0.809 -0.3633,0.118 -0.9511,-0.309 -0.2245,-0.309" fill="none" stroke="#6ea8fe" stroke-width="2.5" vector-effect="non-scaling-stroke" stroke-linejoin="round"/></g>
    <text x="290" y="655" text-anchor="middle" font-size="22" font-weight="700" fill="#9db4d8">B</text>
    </g>

    <g transform="translate(140,0)">
    <rect x="380" y="520" width="130" height="150" rx="12" fill="#0e1730" stroke="#1e2b48" stroke-width="1.5"/>
    <rect x="412" y="555" width="66" height="66" rx="5" fill="none" stroke="#6ea8fe" stroke-width="2.5"/>
    <text x="445" y="655" text-anchor="middle" font-size="22" font-weight="700" fill="#9db4d8">C</text>
    </g>

    <g transform="translate(-465,210)">
    <rect x="535" y="520" width="130" height="150" rx="12" fill="#0e1730" stroke="#1e2b48" stroke-width="1.5"/>
    <g transform="translate(600,585) scale(56)"><polygon points="0,-1 0.2245,-0.309 0.9511,-0.309 0.3633,0.118 0.5878,0.809 0,0.382 -0.5878,0.809 -0.3633,0.118 -0.9511,-0.309 -0.2245,-0.309" fill="none" stroke="#6ea8fe" stroke-width="2.5" vector-effect="non-scaling-stroke" stroke-linejoin="round"/></g>
    <text x="600" y="655" text-anchor="middle" font-size="22" font-weight="700" fill="#9db4d8">D</text>
    </g>

    <rect x="295" y="730" width="130" height="150" rx="12" fill="#0e1730" stroke="#1e2b48" stroke-width="1.5"/>
    <g transform="translate(360,795) scale(34)"><polygon points="0,-1 0.2245,-0.309 0.9511,-0.309 0.3633,0.118 0.5878,0.809 0,0.382 -0.5878,0.809 -0.3633,0.118 -0.9511,-0.309 -0.2245,-0.309" fill="none" stroke="#6ea8fe" stroke-width="2.5" vector-effect="non-scaling-stroke" stroke-linejoin="round"/></g>
    <text x="360" y="865" text-anchor="middle" font-size="22" font-weight="700" fill="#9db4d8">E</text>

    <rect x="520" y="730" width="130" height="150" rx="12" fill="#0e1730" stroke="#1e2b48" stroke-width="1.5"/>
    <circle cx="585" cy="795" r="38" fill="none" stroke="#6ea8fe" stroke-width="2.5"/>
    <text x="585" y="865" text-anchor="middle" font-size="22" font-weight="700" fill="#9db4d8">F</text>
  </g>

  <text x="360" y="955" text-anchor="middle" font-size="14" fill="#4a5b7e">ข้อสอบไอคิว (ระดับง่าย) · Buildly Recruit</text>
</svg>
