<svg xmlns="http://www.w3.org/2000/svg" viewBox="0 0 720 980" font-family="system-ui, sans-serif">

  <rect x="0" y="0" width="720" height="980" rx="18" fill="#0b1120"/>

  <rect x="70" y="60" width="580" height="380" rx="14" fill="#0e1730" stroke="#1e2b48" stroke-width="1.5"/>

  <g transform="translate(200,140) rotate(0)"><polyline points="26,-26 -26,0 26,26" fill="none" stroke="#6ea8fe" stroke-width="2.5" stroke-linejoin="round" stroke-linecap="round"/></g>
  <g transform="translate(360,140) rotate(90)"><polyline points="26,-26 -26,0 26,26" fill="none" stroke="#6ea8fe" stroke-width="2.5" stroke-linejoin="round" stroke-linecap="round"/></g>
  <g transform="translate(520,140) rotate(180)"><polyline points="26,-26 -26,0 26,26" fill="none" stroke="#6ea8fe" stroke-width="2.5" stroke-linejoin="round" stroke-linecap="round"/></g>

  <g transform="translate(200,260) rotate(270)"><polyline points="26,-26 -26,0 26,26" fill="none" stroke="#6ea8fe" stroke-width="2.5" stroke-linejoin="round" stroke-linecap="round"/></g>
  <g transform="translate(360,260) rotate(0)"><polyline points="26,-26 -26,0 26,26" fill="none" stroke="#6ea8fe" stroke-width="2.5" stroke-linejoin="round" stroke-linecap="round"/></g>
  <g transform="translate(520,260) rotate(90)"><polyline points="26,-26 -26,0 26,26" fill="none" stroke="#6ea8fe" stroke-width="2.5" stroke-linejoin="round" stroke-linecap="round"/></g>

  <g transform="translate(200,380) rotate(180)"><polyline points="26,-26 -26,0 26,26" fill="none" stroke="#6ea8fe" stroke-width="2.5" stroke-linejoin="round" stroke-linecap="round"/></g>
  <g transform="translate(360,380) rotate(270)"><polyline points="26,-26 -26,0 26,26" fill="none" stroke="#6ea8fe" stroke-width="2.5" stroke-linejoin="round" stroke-linecap="round"/></g>
  <rect x="472" y="332" width="96" height="96" rx="8" fill="none" stroke="#33436b" stroke-width="2" stroke-dasharray="7 7"/>
  <text x="520" y="400" text-anchor="middle" font-size="60" font-weight="700" fill="#6ea8fe">?</text>

  <text x="360" y="486" text-anchor="middle" font-size="20" fill="#9db4d8">รูปไหนควรอยู่ตรงเครื่องหมาย ?</text>

  <g>

    <g transform="translate(0,0)">
    <rect x="70" y="520" width="130" height="150" rx="12" fill="#0e1730" stroke="#1e2b48" stroke-width="1.5"/>
    <g transform="translate(135,585) rotate(90)"><polyline points="26,-26 -26,0 26,26" fill="none" stroke="#6ea8fe" stroke-width="2.5" stroke-linejoin="round" stroke-linecap="round"/></g>
    <text x="135" y="655" text-anchor="middle" font-size="22" font-weight="700" fill="#9db4d8">A</text>
    </g>

    <g transform="translate(70,0)">
    <rect x="225" y="520" width="130" height="150" rx="12" fill="#0e1730" stroke="#1e2b48" stroke-width="1.5"/>
    <g transform="translate(290,585) rotate(180)"><polyline points="26,-26 -26,0 26,26" fill="none" stroke="#6ea8fe" stroke-width="2.5" stroke-linejoin="round" stroke-linecap="round"/></g>
    <text x="290" y="655" text-anchor="middle" font-size="22" font-weight="700" fill="#9db4d8">B</text>
    </g>

    <g transform="translate(140,0)">
    <rect x="380" y="520" width="130" height="150" rx="12" fill="#0e1730" stroke="#1e2b48" stroke-width="1.5"/>
    <g transform="translate(445,585) rotate(0)"><polyline points="26,-26 -26,0 26,26" fill="none" stroke="#6ea8fe" stroke-width="2.5" stroke-linejoin="round" stroke-linecap="round"/></g>
    <text x="445" y="655" text-anchor="middle" font-size="22" font-weight="700" fill="#9db4d8">C</text>
    </g>

    <g transform="translate(-465,210)">
    <rect x="535" y="520" width="130" height="150" rx="12" fill="#0e1730" stroke="#1e2b48" stroke-width="1.5"/>
    <g transform="translate(600,585) rotate(270)"><polyline points="26,-26 -26,0 26,26" fill="none" stroke="#6ea8fe" stroke-width="2.5" stroke-linejoin="round" stroke-linecap="round"/></g>
    <text x="600" y="655" text-anchor="middle" font-size="22" font-weight="700" fill="#9db4d8">D</text>
    </g>

    <rect x="295" y="730" width="130" height="150" rx="12" fill="#0e1730" stroke="#1e2b48" stroke-width="1.5"/>
    <g transform="translate(360,795) rotate(45)"><polyline points="26,-26 -26,0 26,26" fill="none" stroke="#6ea8fe" stroke-width="2.5" stroke-linejoin="round" stroke-linecap="round"/></g>
    <text x="360" y="865" text-anchor="middle" font-size="22" font-weight="700" fill="#9db4d8">E</text>

    <rect x="520" y="730" width="130" height="150" rx="12" fill="#0e1730" stroke="#1e2b48" stroke-width="1.5"/>
    <g transform="translate(585,795) rotate(135)"><polyline points="26,-26 -26,0 26,26" fill="none" stroke="#6ea8fe" stroke-width="2.5" stroke-linejoin="round" stroke-linecap="round"/></g>
    <text x="585" y="865" text-anchor="middle" font-size="22" font-weight="700" fill="#9db4d8">F</text>
  </g>

  <text x="360" y="955" text-anchor="middle" font-size="14" fill="#4a5b7e">ข้อสอบไอคิว (ระดับกลาง) · Buildly Recruit</text>
</svg>
